<?xml version="1.0" encoding="UTF-8" standalone="no"?>
<!-- Created with Inkscape (http://www.inkscape.org/) -->

<svg
   width="64"
   height="64"
   viewBox="0 0 16.933333 16.933333"
   version="1.1"
   id="svg32875"
   inkscape:version="1.2.2 (b0a8486541, 2022-12-01)"
   sodipodi:docname="delay_node.svg"
   xmlns:inkscape="http://www.inkscape.org/namespaces/inkscape"
   xmlns:sodipodi="http://sodipodi.sourceforge.net/DTD/sodipodi-0.dtd"
   xmlns="http://www.w3.org/2000/svg"
   xmlns:svg="http://www.w3.org/2000/svg">
  <sodipodi:namedview
     id="namedview32877"
     pagecolor="#505050"
     bordercolor="#eeeeee"
     borderopacity="1"
     inkscape:showpageshadow="0"
     inkscape:pageopacity="0"
     inkscape:pagecheckerboard="0"
     inkscape:deskcolor="#505050"
     inkscape:document-units="mm"
     showgrid="true"
     inkscape:zoom="8.8391522"
     inkscape:cx="44.121879"
     inkscape:cy="20.75991"
     inkscape:window-width="2560"
     inkscape:window-height="1390"
     inkscape:window-x="1920"
     inkscape:window-y="1080"
     inkscape:window-maximized="1"
     inkscape:current-layer="layer1"
     showguides="false">
    <inkscape:grid
       type="xygrid"
       id="grid32996"
       empspacing="4" />
  </sodipodi:namedview>
  <defs
     id="defs32872" />
  <g
     inkscape:label="Layer 1"
     inkscape:groupmode="layer"
     id="layer1">
    <circle
       style="fill:none;stroke:#ffffff;stroke-width:1;stroke-dasharray:none;stop-color:#000000"
       id="path33050"
       cx="8.4666662"
       cy="5.8208337"
       r="4.2333331" />
    <path
       style="fill:none;stroke:#ffffff;stroke-width:0.5;stroke-linecap:round;stroke-linejoin:round;stroke-dasharray:none;stroke-opacity:1"
       d="m 8.4666666,2.6458339 v 3.175 l 2.6458334,10e-8"
       id="path33467" />
    <path
       style="fill:none;stroke:#ffffff;stroke-width:0.264583px;stroke-linecap:round;stroke-linejoin:miter;stroke-opacity:1"
       d="m 3.4395833,8.4666667 -2.91041663,0"
       id="path33469"
       sodipodi:nodetypes="cc" />
    <path
       style="fill:none;stroke:#ffffff;stroke-width:0.264583px;stroke-linecap:round;stroke-linejoin:miter;stroke-opacity:1"
       d="m 13.49375,8.4666667 2.910417,-10e-8"
       id="path33471"
       sodipodi:nodetypes="cc" />
    <path
       id="rect33473"
       style="fill:#ffffff;stroke:#ffffff;stroke-width:0.499999;stroke-linecap:round;stroke-linejoin:round;stop-color:#000000"
       d="m 1.5875082,7.6729167 1.0583335,0.79375 -1.0583335,0.79375 z"
       sodipodi:nodetypes="cccc" />
    <path
       id="path33476"
       style="fill:#ffffff;stroke:#ffffff;stroke-width:0.499999;stroke-linecap:round;stroke-linejoin:round;stop-color:#000000"
       d="m 14.287508,7.6729167 1.058334,0.79375 -1.058334,0.79375 z"
       sodipodi:nodetypes="cccc" />
    <path
       id="rect35009"
       style="fill:#ffffff;stroke:none;stroke-width:0.499999;stroke-linecap:square;stroke-linejoin:miter;stroke-dasharray:none;stop-color:#000000"
       d="M 3.7041667 11.1125 A 0.26458332 1.0583333 0 0 0 3.4395833 12.170833 A 0.26458332 1.0583333 0 0 0 3.7041667 13.229167 L 6.35 13.229167 L 6.35 13.758333 L 3.7098511 13.758333 A 0.26458332 1.0583333 0 0 0 3.7041667 13.758333 A 0.26458332 1.0583333 0 0 0 3.4395833 14.816667 A 0.26458332 1.0583333 0 0 0 3.7041667 15.875 L 13.229167 15.875 A 0.26458332 1.0583333 0 0 0 13.49375 14.816667 A 0.26458332 1.0583333 0 0 0 13.229167 13.758333 L 10.583333 13.758333 L 10.583333 13.229167 L 13.229167 13.229167 A 0.26458332 1.0583333 0 0 0 13.49375 12.170833 A 0.26458332 1.0583333 0 0 0 13.229167 11.1125 L 3.7098511 11.1125 A 0.26458332 1.0583333 0 0 0 3.7041667 11.1125 z M 6.8791667 11.641667 L 10.054167 11.641667 L 10.054167 13.229167 L 10.054167 13.758333 L 10.054167 15.345833 L 6.8791667 15.345833 L 6.8791667 13.758333 L 6.8791667 13.229167 L 6.8791667 11.641667 z " />
    <path
       style="fill:none;stroke:#f9f9f9;stroke-width:0.264583px;stroke-linecap:butt;stroke-linejoin:miter;stroke-opacity:1"
       d="m 13.229167,14.816666 c 0,0 1.058333,1e-6 1.058333,-1.058333 V 11.1125 c 0,-0.79375 -0.529167,-0.529167 -1.5875,-1.5875 L 11.641667,8.4666667"
       id="path35833"
       sodipodi:nodetypes="ccccc" />
    <path
       style="fill:none;stroke:#f9f9f9;stroke-width:0.264583px;stroke-linecap:butt;stroke-linejoin:miter;stroke-opacity:1"
       d="m 13.229167,12.170833 c 0,0 1.058333,10e-7 1.058333,-1.058333"
       id="path35837"
       sodipodi:nodetypes="cc" />
    <path
       style="fill:none;stroke:#f9f9f9;stroke-width:0.264583px;stroke-linecap:butt;stroke-linejoin:miter;stroke-opacity:1"
       d="m 3.7041663,14.816666 c 0,0 -1.058333,1e-6 -1.058333,-1.058333 V 11.1125 c 0,-0.79375 0.529167,-0.529167 1.5875,-1.5875 l 1.058333,-1.0583333"
       id="path35839"
       sodipodi:nodetypes="ccccc" />
    <path
       style="fill:none;stroke:#f9f9f9;stroke-width:0.264583px;stroke-linecap:butt;stroke-linejoin:miter;stroke-opacity:1"
       d="m 3.7041663,12.170833 c 0,0 -1.058333,10e-7 -1.058333,-1.058333"
       id="path35841"
       sodipodi:nodetypes="cc" />
  </g>
</svg>
